<svg width="54" height="25" viewBox="0 0 54 25" fill="none" xmlns="http://www.w3.org/2000/svg">
<g clip-path="url(#clip0_254_117)">
<rect width="54" height="25" rx="5" fill="white"/>
<g filter="url(#filter0_d_254_117)">
<circle cx="13" cy="12" r="10" fill="white"/>
</g>
<path fill-rule="evenodd" clip-rule="evenodd" d="M13 15.9502L9.87713 17.5436C9.50946 17.7313 9.08567 17.4177 9.1575 17.0113L9.75 13.6584L7.25401 11.2969C6.94975 11.0091 7.11307 10.4971 7.52781 10.4386L10.9914 9.95016L12.5543 6.8765C12.7397 6.512 13.2603 6.512 13.4457 6.8765L15.0086 9.95016L18.4722 10.4386C18.8869 10.4971 19.0502 11.0091 18.746 11.2969L16.25 13.6584L16.8425 17.0113C16.9143 17.4177 16.4905 17.7313 16.1229 17.5436L13 15.9502Z" fill="#FFBA49"/>
<path d="M28.324 17.144C27.74 17.144 27.16 17.068 26.584 16.916C26.016 16.756 25.528 16.532 25.12 16.244L25.888 14.756C26.208 14.988 26.576 15.172 26.992 15.308C27.416 15.444 27.844 15.512 28.276 15.512C28.764 15.512 29.148 15.416 29.428 15.224C29.708 15.032 29.848 14.764 29.848 14.42C29.848 14.204 29.792 14.012 29.68 13.844C29.568 13.676 29.368 13.548 29.08 13.46C28.8 13.372 28.404 13.328 27.892 13.328H25.744L26.176 8.6H31.3V10.16H26.872L27.88 9.272L27.58 12.644L26.572 11.756H28.348C29.18 11.756 29.848 11.872 30.352 12.104C30.864 12.328 31.236 12.636 31.468 13.028C31.7 13.42 31.816 13.864 31.816 14.36C31.816 14.856 31.692 15.316 31.444 15.74C31.196 16.156 30.812 16.496 30.292 16.76C29.78 17.016 29.124 17.144 28.324 17.144ZM33.7087 17.096C33.3887 17.096 33.1127 16.988 32.8807 16.772C32.6567 16.548 32.5447 16.264 32.5447 15.92C32.5447 15.576 32.6567 15.3 32.8807 15.092C33.1127 14.876 33.3887 14.768 33.7087 14.768C34.0367 14.768 34.3127 14.876 34.5367 15.092C34.7607 15.3 34.8727 15.576 34.8727 15.92C34.8727 16.264 34.7607 16.548 34.5367 16.772C34.3127 16.988 34.0367 17.096 33.7087 17.096ZM39.193 17.144C38.505 17.144 37.889 16.976 37.345 16.64C36.801 16.296 36.373 15.8 36.061 15.152C35.749 14.504 35.593 13.72 35.593 12.8C35.593 11.88 35.749 11.096 36.061 10.448C36.373 9.8 36.801 9.308 37.345 8.972C37.889 8.628 38.505 8.456 39.193 8.456C39.889 8.456 40.505 8.628 41.041 8.972C41.585 9.308 42.013 9.8 42.325 10.448C42.637 11.096 42.793 11.88 42.793 12.8C42.793 13.72 42.637 14.504 42.325 15.152C42.013 15.8 41.585 16.296 41.041 16.64C40.505 16.976 39.889 17.144 39.193 17.144ZM39.193 15.5C39.521 15.5 39.805 15.408 40.045 15.224C40.293 15.04 40.485 14.748 40.621 14.348C40.765 13.948 40.837 13.432 40.837 12.8C40.837 12.168 40.765 11.652 40.621 11.252C40.485 10.852 40.293 10.56 40.045 10.376C39.805 10.192 39.521 10.1 39.193 10.1C38.873 10.1 38.589 10.192 38.341 10.376C38.101 10.56 37.909 10.852 37.765 11.252C37.629 11.652 37.561 12.168 37.561 12.8C37.561 13.432 37.629 13.948 37.765 14.348C37.909 14.748 38.101 15.04 38.341 15.224C38.589 15.408 38.873 15.5 39.193 15.5ZM47.3375 17.144C46.6495 17.144 46.0335 16.976 45.4895 16.64C44.9455 16.296 44.5175 15.8 44.2055 15.152C43.8935 14.504 43.7375 13.72 43.7375 12.8C43.7375 11.88 43.8935 11.096 44.2055 10.448C44.5175 9.8 44.9455 9.308 45.4895 8.972C46.0335 8.628 46.6495 8.456 47.3375 8.456C48.0335 8.456 48.6495 8.628 49.1855 8.972C49.7295 9.308 50.1575 9.8 50.4695 10.448C50.7815 11.096 50.9375 11.88 50.9375 12.8C50.9375 13.72 50.7815 14.504 50.4695 15.152C50.1575 15.8 49.7295 16.296 49.1855 16.64C48.6495 16.976 48.0335 17.144 47.3375 17.144ZM47.3375 15.5C47.6655 15.5 47.9495 15.408 48.1895 15.224C48.4375 15.04 48.6295 14.748 48.7655 14.348C48.9095 13.948 48.9815 13.432 48.9815 12.8C48.9815 12.168 48.9095 11.652 48.7655 11.252C48.6295 10.852 48.4375 10.56 48.1895 10.376C47.9495 10.192 47.6655 10.1 47.3375 10.1C47.0175 10.1 46.7335 10.192 46.4855 10.376C46.2455 10.56 46.0535 10.852 45.9095 11.252C45.7735 11.652 45.7055 12.168 45.7055 12.8C45.7055 13.432 45.7735 13.948 45.9095 14.348C46.0535 14.748 46.2455 15.04 46.4855 15.224C46.7335 15.408 47.0175 15.5 47.3375 15.5Z" fill="#FFBA49"/>
</g>
<defs>
<filter id="filter0_d_254_117" x="-1" y="2" width="28" height="28" filterUnits="userSpaceOnUse" color-interpolation-filters="sRGB">
<feFlood flood-opacity="0" result="BackgroundImageFix"/>
<feColorMatrix in="SourceAlpha" type="matrix" values="0 0 0 0 0 0 0 0 0 0 0 0 0 0 0 0 0 0 127 0" result="hardAlpha"/>
<feOffset dy="4"/>
<feGaussianBlur stdDeviation="2"/>
<feColorMatrix type="matrix" values="0 0 0 0 0 0 0 0 0 0 0 0 0 0 0 0 0 0 0.08 0"/>
<feBlend mode="normal" in2="BackgroundImageFix" result="effect1_dropShadow_254_117"/>
<feBlend mode="normal" in="SourceGraphic" in2="effect1_dropShadow_254_117" result="shape"/>
</filter>
<clipPath id="clip0_254_117">
<rect width="54" height="25" rx="5" fill="white"/>
</clipPath>
</defs>
</svg>
