<svg width="51" height="51" viewBox="0 0 51 51" fill="none" xmlns="http://www.w3.org/2000/svg">
<rect width="50.86" height="50.86" rx="5" fill="#D30D00"/>
<path d="M19.3613 15.2733C18.8248 15.2733 18.3103 15.4506 17.9309 15.7662C17.5516 16.0818 17.3384 16.5098 17.3384 16.9561C17.3384 17.4024 17.5516 17.8305 17.9309 18.1461C18.3103 18.4617 18.8248 18.639 19.3613 18.639C19.8978 18.639 20.4123 18.4617 20.7916 18.1461C21.171 17.8305 21.3841 17.4024 21.3841 16.9561C21.3841 16.5098 21.171 16.0818 20.7916 15.7662C20.4123 15.4506 19.8978 15.2733 19.3613 15.2733ZM13.6366 15.2733C14.0546 14.2879 14.8296 13.4346 15.8549 12.8311C16.8802 12.2276 18.1053 11.9034 19.3613 11.9034C20.6173 11.9034 21.8424 12.2276 22.8677 12.8311C23.893 13.4346 24.668 14.2879 25.0859 15.2733H39.5897C40.1262 15.2733 40.6407 15.4506 41.0201 15.7662C41.3994 16.0818 41.6125 16.5098 41.6125 16.9561C41.6125 17.4024 41.3994 17.8305 41.0201 18.1461C40.6407 18.4617 40.1262 18.639 39.5897 18.639H25.0859C24.668 19.6243 23.893 20.4776 22.8677 21.0811C21.8424 21.6847 20.6173 22.0088 19.3613 22.0088C18.1053 22.0088 16.8802 21.6847 15.8549 21.0811C14.8296 20.4776 14.0546 19.6243 13.6366 18.639H11.2699C10.7334 18.639 10.2189 18.4617 9.83955 18.1461C9.46019 17.8305 9.24707 17.4024 9.24707 16.9561C9.24707 16.5098 9.46019 16.0818 9.83955 15.7662C10.2189 15.4506 10.7334 15.2733 11.2699 15.2733H13.6366ZM31.4983 25.3704C30.9618 25.3704 30.4473 25.5477 30.068 25.8633C29.6886 26.1789 29.4755 26.6069 29.4755 27.0532C29.4755 27.4995 29.6886 27.9276 30.068 28.2432C30.4473 28.5588 30.9618 28.7361 31.4983 28.7361C32.0348 28.7361 32.5493 28.5588 32.9287 28.2432C33.308 27.9276 33.5212 27.4995 33.5212 27.0532C33.5212 26.6069 33.308 26.1789 32.9287 25.8633C32.5493 25.5477 32.0348 25.3704 31.4983 25.3704ZM25.7737 25.3704C26.1916 24.385 26.9666 23.5317 27.9919 22.9282C29.0172 22.3247 30.2423 22.0005 31.4983 22.0005C32.7543 22.0005 33.9794 22.3247 35.0047 22.9282C36.03 23.5317 36.805 24.385 37.223 25.3704H39.5897C40.1262 25.3704 40.6407 25.5477 41.0201 25.8633C41.3994 26.1789 41.6125 26.6069 41.6125 27.0532C41.6125 27.4995 41.3994 27.9276 41.0201 28.2432C40.6407 28.5588 40.1262 28.7361 39.5897 28.7361H37.223C36.805 29.7214 36.03 30.5747 35.0047 31.1783C33.9794 31.7818 32.7543 32.1059 31.4983 32.1059C30.2423 32.1059 29.0172 31.7818 27.9919 31.1783C26.9666 30.5747 26.1916 29.7214 25.7737 28.7361H11.2699C10.7334 28.7361 10.2189 28.5588 9.83955 28.2432C9.46019 27.9276 9.24707 27.4995 9.24707 27.0532C9.24707 26.6069 9.46019 26.1789 9.83955 25.8633C10.2189 25.5477 10.7334 25.3704 11.2699 25.3704H25.7737ZM19.3613 35.4675C18.8248 35.4675 18.3103 35.6448 17.9309 35.9604C17.5516 36.276 17.3384 36.704 17.3384 37.1503C17.3384 37.5967 17.5516 38.0247 17.9309 38.3403C18.3103 38.6559 18.8248 38.8332 19.3613 38.8332C19.8978 38.8332 20.4123 38.6559 20.7916 38.3403C21.171 38.0247 21.3841 37.5967 21.3841 37.1503C21.3841 36.704 21.171 36.276 20.7916 35.9604C20.4123 35.6448 19.8978 35.4675 19.3613 35.4675ZM13.6366 35.4675C14.0546 34.4821 14.8296 33.6289 15.8549 33.0253C16.8802 32.4218 18.1053 32.0977 19.3613 32.0977C20.6173 32.0977 21.8424 32.4218 22.8677 33.0253C23.893 33.6289 24.668 34.4821 25.0859 35.4675H39.5897C40.1262 35.4675 40.6407 35.6448 41.0201 35.9604C41.3994 36.276 41.6125 36.704 41.6125 37.1503C41.6125 37.5967 41.3994 38.0247 41.0201 38.3403C40.6407 38.6559 40.1262 38.8332 39.5897 38.8332H25.0859C24.668 39.8186 23.893 40.6718 22.8677 41.2754C21.8424 41.8789 20.6173 42.203 19.3613 42.203C18.1053 42.203 16.8802 41.8789 15.8549 41.2754C14.8296 40.6718 14.0546 39.8186 13.6366 38.8332H11.2699C10.7334 38.8332 10.2189 38.6559 9.83955 38.3403C9.46019 38.0247 9.24707 37.5967 9.24707 37.1503C9.24707 36.704 9.46019 36.276 9.83955 35.9604C10.2189 35.6448 10.7334 35.4675 11.2699 35.4675H13.6366Z" fill="white"/>
</svg>
