<svg width="58" height="61" viewBox="0 0 58 61" fill="none" xmlns="http://www.w3.org/2000/svg">
<g clip-path="url(#clip0_254_92)" filter="url(#filter0_d_254_92)">
<path d="M27.4298 48.4295C28.3197 48.409 29.1737 48.0744 29.8408 47.4849C30.5078 46.8954 30.9449 46.089 31.0747 45.2084H23.6436C23.777 46.113 24.2345 46.9383 24.931 47.5308C25.6275 48.1233 26.5154 48.4427 27.4298 48.4295Z" fill="#D30D00"/>
<path d="M47.9285 39.3172C46.5662 38.1027 45.3735 36.7104 44.3825 35.1778C43.3006 33.0622 42.6522 30.7519 42.4753 28.3824V21.4034C42.4695 20.5556 42.3939 19.7098 42.2492 18.8745C41.1372 18.6522 40.0686 18.2515 39.0846 17.6878C39.4597 18.8955 39.6502 20.1529 39.6497 21.4175V28.3965C39.8229 31.2871 40.618 34.1062 41.9808 36.6612C42.9562 38.2067 44.1135 39.6297 45.4279 40.8995H9.24714C10.5616 39.6297 11.7189 38.2067 12.6943 36.6612C14.057 34.1062 14.8522 31.2871 15.0253 28.3965V21.4034C15.0179 19.7684 15.333 18.1479 15.9527 16.6349C16.5724 15.1219 17.4845 13.7459 18.6366 12.5858C19.7888 11.4258 21.1585 10.5044 22.6673 9.87441C24.1761 9.24443 25.7943 8.91826 27.4294 8.91456C29.8222 8.91647 32.1614 9.62412 34.1541 10.9489C33.9344 10.1422 33.8111 9.31233 33.7868 8.4766V7.58656C32.3117 6.86091 30.7269 6.38358 29.0964 6.1738V4.39373C29.0964 3.89352 28.8977 3.4138 28.544 3.0601C28.1903 2.7064 27.7106 2.50769 27.2104 2.50769C26.7102 2.50769 26.2305 2.7064 25.8768 3.0601C25.5231 3.4138 25.3243 3.89352 25.3243 4.39373V6.24444C21.6734 6.75947 18.332 8.57796 15.9171 11.3642C13.5022 14.1504 12.1768 17.7163 12.1857 21.4034V28.3824C12.0087 30.7519 11.3603 33.0622 10.2785 35.1778C9.30489 36.7069 8.13133 38.099 6.78893 39.3172C6.63824 39.4496 6.51746 39.6125 6.43464 39.7952C6.35182 39.9779 6.30885 40.1761 6.30859 40.3767V42.2981C6.30859 42.6728 6.45744 43.0321 6.72238 43.2971C6.98733 43.562 7.34667 43.7108 7.72135 43.7108H46.9961C47.3708 43.7108 47.7301 43.562 47.9951 43.2971C48.26 43.0321 48.4089 42.6728 48.4089 42.2981V40.3767C48.4086 40.1761 48.3656 39.9779 48.2828 39.7952C48.2 39.6125 48.0792 39.4496 47.9285 39.3172Z" fill="#D30D00"/>
<path d="M44.3831 15.5403C48.2844 15.5403 51.4469 12.3778 51.4469 8.47652C51.4469 4.57529 48.2844 1.41272 44.3831 1.41272C40.4819 1.41272 37.3193 4.57529 37.3193 8.47652C37.3193 12.3778 40.4819 15.5403 44.3831 15.5403Z" fill="#D30D00"/>
</g>
<defs>
<filter id="filter0_d_254_92" x="-3.8125" y="0" width="62.4844" height="62.4844" filterUnits="userSpaceOnUse" color-interpolation-filters="sRGB">
<feFlood flood-opacity="0" result="BackgroundImageFix"/>
<feColorMatrix in="SourceAlpha" type="matrix" values="0 0 0 0 0 0 0 0 0 0 0 0 0 0 0 0 0 0 127 0" result="hardAlpha"/>
<feOffset dy="5.8125"/>
<feGaussianBlur stdDeviation="2.90625"/>
<feComposite in2="hardAlpha" operator="out"/>
<feColorMatrix type="matrix" values="0 0 0 0 0 0 0 0 0 0 0 0 0 0 0 0 0 0 0.25 0"/>
<feBlend mode="normal" in2="BackgroundImageFix" result="effect1_dropShadow_254_92"/>
<feBlend mode="normal" in="SourceGraphic" in2="effect1_dropShadow_254_92" result="shape"/>
</filter>
<clipPath id="clip0_254_92">
<rect width="50.8594" height="50.8594" fill="white" transform="translate(2)"/>
</clipPath>
</defs>
</svg>
